<svg xmlns="http://www.w3.org/2000/svg" viewBox="0 0 256 256" width="48" height="48"><g fill="none" stroke-miterlimit="10" font-family="none" font-weight="none" font-size="none" text-anchor="none" style="mix-blend-mode:normal"><path d="M186.17 175.143c0 2.667-1.067 5.334-3.2 7.467-4.267 4.267-10.667 4.267-14.934 0L29.37 43.943c-4.267-4.266-4.267-10.666 0-14.933 4.266-4.267 10.666-4.267 14.933 0L182.97 167.677c2.133 2.133 3.2 4.8 3.2 7.466z" fill="#bcf4ff"/><path d="M186.17 180.477c0 1.6-.534 2.666-1.6 3.733-2.134 2.133-5.334 2.133-7.467 0l-144-144c-2.133-2.133-2.133-5.333 0-7.467 2.133-2.133 5.333-2.133 7.467 0l144 144c1.066 1.067 1.6 2.134 1.6 3.734z" fill="#00c8ff"/><path d="m203.77 210.877 7.466-7.467 17.6 17.6-7.466 7.467z" fill="#90a4ae"/><path d="m163.236 177.81 14.934-14.933 50.666 50.666-14.933 14.934z" fill="#90a4ae"/><path d="m176.036 190.61 14.934-14.933 37.866 37.866-14.933 14.934zm-31.466-31.467 20.8 20.8 14.933-14.933-5.867-5.867z" fill="#37474f"/><path d="m170.17 196.477 16-16 10.666 10.666-16 16z" fill="#37474f"/></g></svg>