<svg xmlns="http://www.w3.org/2000/svg" width="48" height="48"><path fill="#ffccbc" d="M15 35c-.5 0-1-.2-1.4-.6-.8-.8-.8-2 0-2.8l26-26c.8-.8 2-.8 2.8 0 .8.8.8 2 0 2.8l-26 26c-.4.4-.9.6-1.4.6z"/><path fill="#ff3d00" d="M14 35c-.3 0-.5-.1-.7-.3-.4-.4-.4-1 0-1.4l27-27c.4-.4 1-.4 1.4 0s.4 1 0 1.4l-27 27c-.2.2-.4.3-.7.3z"/><path fill="#90a4ae" d="m8.3 38.3 1.4 1.4L6.4 43 5 41.6l3.3-3.3z"/><path fill="#90a4ae" d="m14.5 30.7 2.8 2.8L7.8 43 5 40.2l9.5-9.5z"/><path fill="#37474f" d="m12.1 33.1 2.8 2.8L7.8 43 5 40.2l7.1-7.1zm5.9-5.9-3.9 3.9 2.8 2.8 1.1-1.1v-5.6z"/><path fill="#37474f" d="m11 32 3 3-2 2-3-3 2-2z"/></svg>