<svg xmlns="http://www.w3.org/2000/svg" xmlns:xlink="http://www.w3.org/1999/xlink" viewBox="0,0,256,256" width="48px" height="48px" fill-rule="nonzero"><g fill="none" fill-rule="nonzero" stroke="none" stroke-width="1" stroke-linecap="butt" stroke-linejoin="miter" stroke-miterlimit="10" stroke-dasharray="" stroke-dashoffset="0" font-family="none" font-weight="none" font-size="none" text-anchor="none" style="mix-blend-mode: normal"><g transform="translate(-0.49694,255.14322) rotate(-90) scale(5.33333,5.33333)"><path d="M15,35c-0.5,0 -1,-0.2 -1.4,-0.6c-0.8,-0.8 -0.8,-2 0,-2.8l26,-26c0.8,-0.8 2,-0.8 2.8,0c0.8,0.8 0.8,2 0,2.8l-26,26c-0.4,0.4 -0.9,0.6 -1.4,0.6z" fill="#bcf4ff"></path><path d="M14,35c-0.3,0 -0.5,-0.1 -0.7,-0.3c-0.4,-0.4 -0.4,-1 0,-1.4l27,-27c0.4,-0.4 1,-0.4 1.4,0c0.4,0.4 0.4,1 0,1.4l-27,27c-0.2,0.2 -0.4,0.3 -0.7,0.3z" fill="#00c8ff"></path><path d="M8.3,38.3l1.4,1.4l-3.3,3.3l-1.4,-1.4z" fill="#90a4ae"></path><path d="M14.5,30.7l2.8,2.8l-9.5,9.5l-2.8,-2.8z" fill="#90a4ae"></path><path d="M12.1,33.1l2.8,2.8l-7.1,7.1l-2.8,-2.8zM18,27.2l-3.9,3.9l2.8,2.8l1.1,-1.1z" fill="#37474f"></path><path d="M11,32l3,3l-2,2l-3,-3z" fill="#37474f"></path></g></g></svg>